<?xml version="1.0" ?><!DOCTYPE svg  PUBLIC '-//W3C//DTD SVG 1.1//EN'  'http://www.w3.org/Graphics/SVG/1.1/DTD/svg11.dtd'><svg enable-background="new 0 0 128 128" id="Слой_1" version="1.1" viewBox="0 0 128 128" xml:space="preserve" xmlns="http://www.w3.org/2000/svg" xmlns:xlink="http://www.w3.org/1999/xlink"><g><g><g><path d="M115,39.5l-20-23l-20-6H49l-20,6l-20,23l14,13l5-5l0,65h0c11.3,3.3,22,5,33.7,5h0.6     c11.8,0,22.4-1.7,33.7-5h0l0-65l5,5L115,39.5z" fill="#AF66AA"/></g></g></g><g><g><g><g><polygon fill="#FFFFFF" points="36,18.5 57,10.5 49,10.5 29,16.5 9,39.5 23,52.5 26.8,48.6 17,39.5     "/></g></g></g><g><g><g><path d="M36,112.5l0-51.4c0-3.6-1.9-6.8-5-8.6l0,0l-3-2.8l0,62.8h0c11.3,3.3,18.1,5,8,2L36,112.5z" fill="#FFFFFF"/></g></g></g></g><g><g><g><path d="M75,10.5v3c0,7.2-5.8,13-13,13h0c-7.2,0-13-5.8-13-13v-3" fill="#FFFFFF"/></g></g></g><g><g><g><g><path d="M54,13.5v-3h-5v3c0,7.2,5.8,13,13,13h0c0.9,0,1.7-0.1,2.5-0.2C58.5,25.1,54,19.8,54,13.5z" fill="#FFFFFF"/></g></g></g></g><g><g><g><path d="M62.3,119h-0.6c-11.6,0-22.4-1.6-34.1-5.1c-0.6-0.2-1.1-0.8-1.1-1.4V51.1l-2.4,2.4     c-0.6,0.6-1.5,0.6-2.1,0l-14-13c-0.6-0.6-0.6-1.5-0.1-2.1l20-23c0.2-0.2,0.4-0.4,0.7-0.5l20-6C48.7,9,48.9,9,49,9h26     c0.1,0,0.3,0,0.4,0.1l20,6c0.3,0.1,0.5,0.2,0.7,0.5l20,23c0.5,0.6,0.5,1.5-0.1,2.1l-14,13c-0.6,0.5-1.5,0.5-2.1,0l-2.4-2.4     l0,61.1c0,0.1,0,0.2,0,0.2c0,0.7-0.5,1.3-1.2,1.5C84.6,117.4,73.8,119,62.3,119z M29.5,111.4c11,3.2,21.3,4.6,32.2,4.6h0.6     c10.9,0,21.2-1.5,32.2-4.6V47.5c0-0.6,0.4-1.2,0.9-1.4c0.6-0.2,1.2-0.1,1.6,0.3l4,4l11.9-11L94.2,17.8L74.8,12H49.2l-19.4,5.8     L11.1,39.4l11.9,11l4-4c0.4-0.4,1.1-0.6,1.6-0.3c0.6,0.2,0.9,0.8,0.9,1.4V111.4z" fill="#62355C"/></g></g></g><g><g><g><g><path d="M97,49.5c-0.3,0-0.5-0.1-0.7-0.3c-0.4-0.4-0.4-1,0.1-1.4l0.4-0.3c0.4-0.4,1-0.4,1.4,0.1      c0.4,0.4,0.4,1-0.1,1.4l-0.4,0.3C97.5,49.4,97.2,49.5,97,49.5z" fill="#62355C"/></g></g></g><g><g><g><path d="M100.2,46.6c-0.3,0-0.5-0.1-0.7-0.3c-0.4-0.4-0.4-1,0.1-1.4l0.7-0.6c0.4-0.4,1-0.4,1.4,0.1      c0.4,0.4,0.4,1-0.1,1.4l-0.7,0.6C100.7,46.5,100.4,46.6,100.2,46.6z M103.7,43.3c-0.3,0-0.5-0.1-0.7-0.3c-0.4-0.4-0.4-1,0.1-1.4      l0.7-0.6c0.4-0.4,1-0.4,1.4,0.1c0.4,0.4,0.4,1-0.1,1.4l-0.7,0.6C104.1,43.2,103.9,43.3,103.7,43.3z M107.1,40.1      c-0.3,0-0.5-0.1-0.7-0.3c-0.4-0.4-0.4-1,0.1-1.4l0.7-0.6c0.4-0.4,1-0.4,1.4,0.1c0.4,0.4,0.4,1-0.1,1.4l-0.7,0.6      C107.6,40,107.4,40.1,107.1,40.1z" fill="#62355C"/></g></g></g><g><g><g><path d="M110.6,36.8c-0.3,0-0.5-0.1-0.7-0.3c-0.4-0.4-0.4-1,0.1-1.4l0.4-0.3c0.4-0.4,1-0.4,1.4,0.1      c0.4,0.4,0.4,1-0.1,1.4l-0.4,0.3C111.1,36.7,110.9,36.8,110.6,36.8z" fill="#62355C"/></g></g></g></g><g><g><g><g><path d="M13.4,36.8c-0.2,0-0.5-0.1-0.7-0.3l-0.4-0.3c-0.4-0.4-0.4-1-0.1-1.4c0.4-0.4,1-0.4,1.4-0.1l0.4,0.3      c0.4,0.4,0.4,1,0.1,1.4C13.9,36.7,13.6,36.8,13.4,36.8z" fill="#62355C"/></g></g></g><g><g><g><path d="M23.8,46.6c-0.2,0-0.5-0.1-0.7-0.3l-0.7-0.6c-0.4-0.4-0.4-1-0.1-1.4c0.4-0.4,1-0.4,1.4-0.1l0.7,0.6      c0.4,0.4,0.4,1,0.1,1.4C24.4,46.5,24.1,46.6,23.8,46.6z M20.3,43.3c-0.2,0-0.5-0.1-0.7-0.3L19,42.4c-0.4-0.4-0.4-1-0.1-1.4      c0.4-0.4,1-0.4,1.4-0.1l0.7,0.6c0.4,0.4,0.4,1,0.1,1.4C20.9,43.2,20.6,43.3,20.3,43.3z M16.9,40.1c-0.2,0-0.5-0.1-0.7-0.3      l-0.7-0.6c-0.4-0.4-0.4-1-0.1-1.4c0.4-0.4,1-0.4,1.4-0.1l0.7,0.6c0.4,0.4,0.4,1,0.1,1.4C17.4,40,17.1,40.1,16.9,40.1z" fill="#62355C"/></g></g></g><g><g><g><path d="M27,49.5c-0.2,0-0.5-0.1-0.7-0.3l-0.4-0.3c-0.4-0.4-0.4-1-0.1-1.4c0.4-0.4,1-0.4,1.4-0.1l0.4,0.3      c0.4,0.4,0.4,1,0.1,1.4C27.5,49.4,27.3,49.5,27,49.5z" fill="#62355C"/></g></g></g></g><g><g><g><path d="M62,28c-8,0-14.5-6.5-14.5-14.5v-3C47.5,9.7,48.2,9,49,9s1.5,0.7,1.5,1.5v3C50.5,19.8,55.7,25,62,25     c6.3,0,11.5-5.2,11.5-11.5v-3C73.5,9.7,74.2,9,75,9s1.5,0.7,1.5,1.5v3C76.5,21.5,70,28,62,28z" fill="#62355C"/></g></g></g><g><g><g><circle cx="81.2" cy="40.5" fill="#FFFFFF" r="5"/></g></g></g></svg>